<?xml version="1.0" standalone="no"?>
<!DOCTYPE svg PUBLIC "-//W3C//DTD SVG 20010904//EN"
 "http://www.w3.org/TR/2001/REC-SVG-20010904/DTD/svg10.dtd">
<svg version="1.0" xmlns="http://www.w3.org/2000/svg"
 width="600.000000pt" height="600.000000pt" viewBox="0 0 600.000000 600.000000"
 preserveAspectRatio="xMidYMid meet">
<metadata>
Created by potrace 1.13, written by Peter Selinger 2001-2015
</metadata>
<g transform="translate(0.000000,600.000000) scale(0.100000,-0.100000)"
fill="#000000" stroke="none">
<path d="M0 3000 l0 -3000 3000 0 3000 0 0 3000 0 3000 -3000 0 -3000 0 0
-3000z m3255 1691 c19 -4 -46 -14 -185 -29 -118 -12 -231 -25 -250 -27 l-35
-5 36 14 c100 38 350 65 434 47z m398 -157 c-4 -27 0 -41 22 -70 35 -46 156
-142 246 -195 69 -41 71 -43 119 -143 116 -238 164 -493 164 -861 0 -541 -135
-896 -407 -1073 -137 -88 -320 -156 -455 -167 -37 -3 -79 -8 -93 -10 l-26 -4
24 82 c32 107 36 239 8 349 -21 89 -19 98 47 173 83 94 203 145 343 145 105 0
198 -27 242 -70 37 -36 76 -38 81 -4 2 15 -10 32 -38 56 l-40 35 17 69 c19 78
24 349 7 419 -9 36 -8 41 10 50 41 20 29 41 -71 131 -177 157 -274 221 -396
259 -113 36 -206 34 -425 -11 -190 -38 -233 -39 -290 -4 -43 26 -53 56 -36
100 31 79 173 170 319 206 106 27 288 24 389 -4 44 -13 86 -20 93 -17 23 8 11
49 -19 63 -32 15 -149 39 -229 47 -45 5 -58 10 -62 26 -6 24 -26 24 -103 0
-157 -50 -297 -48 -410 3 l-56 26 -61 -63 c-88 -89 -243 -160 -310 -143 -38 9
-67 60 -67 118 0 51 32 149 55 168 8 7 72 18 142 26 167 19 163 17 163 64 0
36 2 39 33 42 29 3 32 7 35 38 4 42 15 50 69 50 40 0 42 -1 49 -36 6 -34 8
-35 43 -32 35 3 36 2 41 -37 5 -39 6 -40 42 -37 35 3 37 2 44 -33 l7 -37 81 7
c44 4 149 14 231 23 l150 17 3 37 c3 33 7 39 35 46 29 8 32 11 29 45 -3 33 -1
37 25 42 54 12 55 14 51 50 -3 28 -1 35 13 35 37 0 49 12 49 47 l0 34 39 -22
c36 -20 39 -24 34 -55z m-409 44 c21 -29 20 -43 -5 -149 -25 -109 -44 -118
-79 -36 -24 58 -28 55 -50 -30 -6 -24 -17 -43 -24 -43 -16 0 -111 204 -102
219 4 6 18 11 32 11 14 0 23 -4 19 -10 -3 -5 9 -43 26 -85 34 -79 41 -81 53
-13 7 39 -14 98 -35 98 -6 0 -7 5 -4 10 3 6 24 10 46 10 26 0 38 -4 34 -11 -7
-11 45 -149 57 -149 3 0 9 22 13 50 6 41 3 56 -14 84 -33 53 -2 94 33 44z
m-844 -63 c22 -27 -8 -193 -37 -202 -7 -3 -23 17 -36 44 l-25 47 -13 -49 c-8
-26 -20 -50 -27 -53 -14 -4 -96 164 -87 179 10 15 55 11 49 -4 -2 -7 8 -40 22
-73 l28 -59 9 43 c8 32 7 49 -4 70 -7 15 -15 30 -17 35 -2 4 13 7 33 7 23 0
34 -4 30 -11 -8 -11 33 -119 45 -119 17 0 21 70 5 99 -8 17 -15 37 -15 46 0
19 24 20 40 0z m2219 -20 c9 -10 -26 -73 -62 -112 -115 -125 -289 -173 -448
-123 -78 24 -197 91 -281 158 -121 96 -158 87 345 84 243 -2 443 -5 446 -7z
m-2507 -467 c-11 -11 -136 -23 -158 -14 -13 5 3 17 61 46 43 22 83 44 89 50 8
8 12 -1 14 -31 2 -23 -1 -46 -6 -51z m408 -88 c0 -5 -4 -10 -10 -10 -5 0 -10
5 -10 10 0 6 5 10 10 10 6 0 10 -4 10 -10z m-106 -56 c-4 -17 -2 -29 7 -35 25
-16 47 -9 53 16 6 24 39 35 50 17 10 -16 -6 -50 -25 -55 -29 -8 -19 -74 15
-98 11 -9 -3 -31 -15 -24 -5 4 -12 -1 -15 -9 -3 -9 -12 -16 -20 -16 -7 0 -17
-12 -20 -26 -5 -21 -11 -25 -38 -22 -29 3 -31 0 -40 -39 -6 -28 -15 -43 -28
-46 -30 -8 -16 -31 25 -40 30 -7 37 -14 37 -32 0 -31 -20 -43 -27 -16 -11 41
-43 19 -43 -30 0 -14 7 -19 28 -19 15 0 33 5 39 11 7 7 25 9 48 5 34 -7 36 -9
30 -36 -7 -33 12 -52 27 -26 11 20 28 21 28 1 0 -9 12 -20 26 -25 27 -11 28
-23 9 -100 -2 -8 -4 -23 -4 -32 -1 -23 -51 -25 -51 -2 0 8 -13 20 -30 25 -16
6 -30 17 -30 25 0 7 -11 16 -25 20 -35 9 -31 24 5 24 32 0 42 23 14 34 -27 10
-44 7 -44 -9 0 -8 -4 -15 -10 -15 -5 0 -10 9 -10 20 0 11 -7 20 -15 20 -8 0
-15 9 -15 20 0 23 -25 27 -34 5 -4 -11 -13 -14 -30 -9 -31 7 -45 -14 -21 -32
10 -8 16 -17 12 -20 -4 -4 0 -12 8 -18 13 -9 14 -20 5 -65 -6 -30 -11 -56 -13
-57 -8 -8 -47 10 -47 21 0 7 -7 16 -16 19 -9 3 -13 13 -10 23 16 52 16 83 1
83 -8 0 -15 6 -15 14 0 8 -7 17 -16 20 -9 3 -14 13 -11 20 3 8 -1 17 -9 20
-20 8 -8 26 18 26 11 0 22 -8 25 -19 7 -27 30 -34 36 -10 3 12 0 19 -9 19 -8
0 -14 9 -14 20 0 11 -4 20 -10 20 -5 0 -10 16 -10 35 0 19 -5 35 -11 35 -7 0
-8 11 -4 31 5 23 3 34 -12 44 -17 13 -17 14 2 21 28 11 36 26 19 38 -8 7 -11
20 -8 34 8 28 24 29 24 1 0 -13 5 -19 16 -17 11 2 25 34 45 102 15 54 29 99
31 100 16 8 97 34 111 35 14 1 16 -4 11 -25z m-279 -34 c20 -22 23 -87 5 -119
-15 -29 -70 -68 -106 -75 -41 -9 -84 24 -84 63 0 40 50 104 101 129 54 27 61
27 84 2z m1511 -291 c32 -23 68 -49 79 -60 11 -10 39 -35 63 -55 44 -38 59
-74 82 -194 25 -131 8 -406 -29 -451 -16 -19 -17 -20 -81 -3 -82 21 -192 14
-290 -19 l-70 -24 -78 91 c-171 200 -292 350 -290 358 6 16 523 398 539 398 9
0 42 -18 75 -41z m-1031 -209 c3 -5 -1 -10 -10 -10 -9 0 -13 5 -10 10 3 6 8
10 10 10 2 0 7 -4 10 -10z m-275 -15 c0 -9 6 -18 14 -21 10 -4 11 -15 5 -47
-8 -44 0 -57 34 -57 31 0 13 -24 -18 -25 -23 0 -30 -6 -37 -30 -4 -18 -4 -31
2 -33 16 -6 12 -22 -5 -22 -8 0 -15 -5 -15 -11 0 -6 7 -9 15 -5 8 3 15 1 15
-4 0 -6 -9 -10 -20 -10 -13 0 -20 7 -20 19 0 12 -11 22 -32 29 -25 7 -28 10
-12 11 14 1 21 7 20 18 0 10 6 18 14 18 21 0 43 115 24 130 -8 6 -11 19 -8 33
7 25 24 30 24 7z m-203 -97 c3 -10 9 -18 14 -18 5 0 9 -12 9 -26 0 -17 -6 -28
-20 -31 -11 -3 -20 -9 -20 -14 0 -5 -14 -9 -31 -9 -24 0 -29 4 -26 18 3 9 8
35 12 57 4 22 9 43 11 46 8 13 47 -4 51 -23z m357 -46 c11 -19 -7 -52 -28 -52
-30 0 -34 6 -28 35 3 18 11 25 28 25 12 0 25 -4 28 -8z m153 -12 c3 -11 9 -20
14 -20 5 0 6 -6 3 -14 -3 -7 1 -16 9 -19 12 -4 13 -15 6 -53 -5 -26 -10 -49
-12 -50 -2 -2 -39 3 -82 11 l-80 14 80 -4 c57 -4 73 -2 57 5 -12 5 -38 10 -57
12 -25 1 -35 7 -35 19 0 10 -6 20 -12 22 -7 3 -3 6 9 6 15 1 21 -4 17 -13 -3
-8 3 -16 16 -19 26 -7 46 25 31 51 -6 9 -11 12 -11 7 0 -6 -9 -11 -20 -11 -15
0 -20 7 -20 28 0 18 5 28 15 28 8 0 15 5 15 10 0 6 12 10 26 10 17 0 28 -6 31
-20z m-601 -77 c-1 -38 -1 -38 42 -41 23 -2 42 -8 42 -13 0 -6 -17 -8 -45 -3
-32 4 -45 3 -45 -5 0 -7 5 -9 10 -6 6 3 10 1 10 -4 0 -6 -15 -10 -35 -8 -19 1
-35 7 -35 14 0 7 7 10 15 7 8 -4 15 -1 15 5 0 6 -7 11 -15 11 -8 0 -15 5 -15
11 0 6 7 9 15 6 8 -4 17 -2 20 3 4 6 -1 10 -9 10 -10 0 -16 9 -16 25 0 20 5
25 24 25 20 0 23 -4 22 -37z m394 -35 c0 -14 -5 -18 -16 -14 -9 3 -24 6 -35 6
-10 0 -19 5 -19 11 0 5 5 7 10 4 12 -7 20 11 29 65 2 13 31 -55 31 -72z m-240
33 c0 -5 -9 -7 -20 -4 -11 3 -20 7 -20 9 0 2 9 4 20 4 11 0 20 -4 20 -9z m208
-57 c12 -2 22 -11 22 -18 0 -20 40 -28 47 -10 4 12 16 13 52 8 25 -4 55 -10
66 -15 l20 -8 -20 0 c-11 0 -39 4 -62 8 -24 5 -43 4 -43 0 0 -5 6 -9 14 -9 10
0 12 -13 10 -52 -2 -29 -1 -45 2 -35 3 9 10 17 16 17 5 0 7 -7 4 -16 -3 -9 -6
-20 -6 -25 0 -4 -7 -6 -15 -3 -9 4 -15 0 -15 -9 0 -8 -9 -17 -19 -20 -15 -3
-21 1 -23 17 -2 13 -11 22 -25 24 -18 3 -23 -2 -24 -20 -1 -13 -1 -26 0 -30 0
-5 -10 -8 -24 -8 -17 0 -23 4 -19 15 4 8 -1 17 -10 21 -9 3 -16 12 -16 20 0 8
-4 14 -10 14 -5 0 -10 5 -10 10 0 6 6 9 13 8 6 -2 13 9 15 24 3 22 9 27 35 30
24 2 33 8 35 24 2 17 -4 23 -29 28 -36 7 -94 6 -66 -1 30 -8 19 -24 -13 -18
-22 4 -30 1 -30 -10 0 -8 -4 -15 -9 -15 -5 0 -7 9 -4 20 3 11 12 20 19 20 8 0
14 6 14 14 0 14 41 14 108 0z m-438 -24 c0 -13 -7 -20 -19 -20 -12 0 -20 -9
-24 -29 -6 -26 -47 -53 -47 -30 0 5 6 9 14 9 8 0 17 15 20 36 5 26 11 34 22
30 8 -3 17 1 20 9 8 21 14 19 14 -5z m630 -40 c0 -5 -6 -10 -14 -10 -8 0 -18
5 -21 10 -3 6 3 10 14 10 12 0 21 -4 21 -10z m9 -49 c1 11 8 15 24 12 19 -4
23 -10 19 -29 -4 -23 -1 -26 44 -39 6 -2 9 -14 7 -27 -4 -21 -9 -23 -39 -20
-25 3 -34 8 -30 19 3 7 -1 16 -9 19 -8 4 -15 15 -15 25 0 14 -7 19 -30 19 -16
0 -30 4 -30 10 0 5 7 7 16 3 10 -4 17 2 22 18 l6 24 7 -25 c4 -14 7 -18 8 -9z
m-758 -11 c6 0 7 -5 4 -10 -4 -6 -11 -8 -16 -5 -5 4 -9 1 -9 -4 0 -6 6 -11 13
-12 6 0 2 -4 -11 -10 -13 -5 -20 -13 -17 -19 4 -6 -5 -10 -19 -10 -29 0 -36
19 -8 21 16 1 16 2 0 6 -24 6 -23 23 2 23 12 0 20 7 20 16 0 11 5 14 16 10 9
-3 20 -6 25 -6z m594 -170 c9 0 12 -6 9 -15 -4 -9 0 -15 10 -15 10 0 16 -9 16
-25 0 -22 -3 -24 -31 -18 -24 5 -31 2 -35 -14 -4 -15 -12 -18 -34 -15 -21 3
-29 -1 -33 -15 -4 -15 -5 -14 -6 5 -1 12 -7 22 -16 22 -8 0 -15 8 -15 18 0 33
12 62 26 62 8 0 14 4 14 9 0 6 15 11 33 13 27 3 33 8 37 33 4 29 4 28 8 -7 2
-24 8 -38 17 -38z m250 60 c4 -7 -6 -10 -29 -8 -20 1 -36 6 -36 10 0 12 58 10
65 -2z m-115 -21 c0 -5 -7 -9 -17 -9 -24 0 -13 -6 25 -13 24 -5 32 -3 32 8 0
10 10 15 33 14 36 0 85 -17 55 -18 -21 -1 -26 -50 -5 -52 6 -1 -4 -5 -23 -9
-33 -7 -33 -7 -6 -9 26 -1 28 -4 22 -28 -4 -16 -7 -36 -7 -46 0 -9 -4 -15 -10
-12 -5 4 -9 1 -9 -4 0 -6 6 -11 14 -11 9 0 14 -9 13 -20 -1 -11 -7 -20 -14
-20 -7 0 -13 -7 -13 -15 0 -8 -4 -15 -10 -15 -5 0 -7 7 -4 15 4 8 2 15 -4 15
-5 0 -24 3 -41 6 -26 6 -31 4 -31 -14 0 -17 -6 -19 -47 -16 -46 3 -45 3 12 -9
l60 -12 -3 -45 c-4 -52 -11 -63 -32 -50 -10 7 -11 10 -2 10 6 0 12 5 12 10 0
6 -3 9 -7 9 -21 -3 -43 2 -43 10 0 5 8 12 18 14 9 3 4 5 -13 6 -16 1 -37 6
-45 12 -11 7 1 9 43 5 33 -3 57 -1 57 5 0 5 -20 10 -45 10 -25 1 -49 3 -55 4
-5 1 -17 3 -25 4 -8 0 -15 5 -15 11 0 5 7 7 15 4 8 -4 15 -1 15 5 0 6 -8 12
-17 12 -17 1 -17 2 0 6 9 2 17 8 17 13 0 5 -8 11 -17 13 -10 3 -3 5 15 6 21 1
32 6 32 16 0 8 5 15 11 15 6 0 9 -7 5 -15 -3 -8 -1 -15 3 -15 5 0 16 -3 25 -6
11 -4 16 -1 16 10 0 9 7 16 15 16 8 0 15 5 15 10 0 6 -7 10 -15 10 -9 0 -12 6
-9 15 4 8 2 15 -4 15 -6 0 -17 3 -26 6 -12 4 -16 0 -16 -15 0 -12 -5 -21 -11
-21 -6 0 -8 9 -4 20 3 11 2 20 -4 20 -5 0 -12 -8 -14 -17 -3 -10 -5 0 -4 22 1
23 7 40 14 40 20 0 27 15 7 16 -18 0 -18 1 1 9 11 4 34 6 50 4 l30 -4 -31 10
c-26 8 -30 14 -27 34 4 17 10 22 24 19 10 -3 19 -9 19 -14z m-848 -20 c48 -25
100 -90 181 -231 107 -184 148 -277 149 -336 0 -28 -3 -56 -7 -61 -8 -14 -63
-14 -106 1 -128 43 -334 239 -411 391 -90 179 27 321 194 236z m1224 -17 c157
-115 258 -355 226 -540 -33 -193 -88 -278 -194 -302 -66 -15 -103 -6 -132 34
-19 25 -21 43 -23 197 -2 140 -7 188 -28 280 -48 207 -44 283 16 334 41 34 85
33 135 -3z m-689 -79 c-3 -10 -5 -4 -5 12 0 17 2 24 5 18 2 -7 2 -21 0 -30z
m33 12 c0 -14 -4 -25 -10 -25 -5 0 -10 11 -10 25 0 14 5 25 10 25 6 0 10 -11
10 -25z m-40 -75 c0 -33 -3 -40 -20 -40 -12 0 -20 -7 -20 -17 0 -9 -3 -14 -6
-10 -10 10 6 78 17 71 6 -3 13 3 16 15 8 32 13 25 13 -19z m300 30 c0 -5 -4
-10 -10 -10 -5 0 -10 5 -10 10 0 6 5 10 10 10 6 0 10 -4 10 -10z m-5 -30 c3
-5 1 -10 -4 -10 -6 0 -11 5 -11 10 0 6 2 10 4 10 3 0 8 -4 11 -10z m-359 -29
c-3 -5 -15 -7 -26 -4 -28 7 -25 13 6 13 14 0 23 -4 20 -9z m-44 -54 c36 -2 55
-17 23 -17 -8 0 -15 -7 -15 -17 0 -9 -3 -13 -7 -9 -5 4 -8 13 -8 19 0 8 -23
13 -63 15 -38 2 -60 7 -56 13 3 6 24 7 47 4 23 -3 59 -7 79 -8z m68 -7 c0 -5
-5 -10 -11 -10 -5 0 -7 5 -4 10 3 6 8 10 11 10 2 0 4 -4 4 -10z m450 -4 c0 -3
-4 -8 -10 -11 -5 -3 -10 -1 -10 4 0 6 5 11 10 11 6 0 10 -2 10 -4z m-630 -10
c0 -3 -4 -8 -10 -11 -5 -3 -10 -1 -10 4 0 6 5 11 10 11 6 0 10 -2 10 -4z m50
-75 c0 -5 -11 -8 -25 -8 -14 0 -28 3 -31 8 -3 5 9 9 25 9 17 0 31 -4 31 -9z
m1652 -424 c-79 -161 -229 -341 -391 -470 -148 -118 -373 -230 -558 -278 -93
-23 -251 -25 -352 -4 -91 19 -209 65 -291 112 -82 49 -203 162 -229 217 -52
105 3 206 111 206 41 0 144 -49 178 -85 13 -14 46 -57 74 -97 87 -122 193
-177 356 -185 314 -16 683 183 911 489 32 43 60 86 64 95 5 17 155 95 164 87
2 -2 -14 -42 -37 -87z"/>
<path d="M2640 4308 c-51 -15 -90 -46 -90 -72 0 -30 16 -42 61 -51 64 -12 143
49 137 104 -3 22 -8 26 -38 28 -19 1 -51 -3 -70 -9z"/>
<path d="M2632 3120 c0 -14 2 -19 5 -12 2 6 2 18 0 25 -3 6 -5 1 -5 -13z"/>
<path d="M2015 3110 c3 -5 8 -10 11 -10 2 0 4 5 4 10 0 6 -5 10 -11 10 -5 0
-7 -4 -4 -10z"/>
<path d="M2422 2968 c2 -15 11 -24 26 -26 18 -3 22 1 22 22 0 21 -5 26 -26 26
-21 0 -25 -4 -22 -22z"/>
<path d="M2395 2740 c-3 -5 -1 -10 4 -10 6 0 11 5 11 10 0 6 -2 10 -4 10 -3 0
-8 -4 -11 -10z"/>
<path d="M2391 2674 c0 -11 3 -14 6 -6 3 7 2 16 -1 19 -3 4 -6 -2 -5 -13z"/>
<path d="M2540 2718 c0 -4 16 -8 35 -8 19 0 35 2 35 4 0 2 -16 6 -35 8 -19 2
-35 0 -35 -4z"/>
<path d="M2565 2690 c-3 -5 -1 -10 4 -10 6 0 11 5 11 10 0 6 -2 10 -4 10 -3 0
-8 -4 -11 -10z"/>
<path d="M2640 2610 c0 -5 5 -10 10 -10 6 0 10 5 10 10 0 6 -4 10 -10 10 -5 0
-10 -4 -10 -10z"/>
<path d="M2550 2560 c0 -5 5 -10 11 -10 5 0 7 5 4 10 -3 6 -8 10 -11 10 -2 0
-4 -4 -4 -10z"/>
</g>
</svg>
